<svg width="32" height="31" viewBox="0 0 32 31" fill="none" xmlns="http://www.w3.org/2000/svg">
<path d="M29.7983 11.7461L27.4746 11.3783C27.3679 11.0998 27.2503 10.8253 27.1218 10.5548L28.4968 8.70247C28.8624 8.21333 29.0356 7.61378 28.9851 7.01187C28.9347 6.40997 28.664 5.84531 28.2218 5.41968L26.4056 3.66007C25.9662 3.23168 25.3833 2.96943 24.762 2.92059C24.1407 2.87174 23.5218 3.03951 23.0169 3.39366L21.1052 4.72569C20.8261 4.60137 20.5425 4.48742 20.2545 4.38385L19.875 2.13302C19.7765 1.5367 19.4613 0.994093 18.9863 0.603003C18.5113 0.211913 17.9077 -0.00193315 17.2843 1.31696e-05H14.7156C14.0922 -0.0019088 13.4887 0.211933 13.0137 0.602996C12.5387 0.99406 12.2235 1.53662 12.125 2.1329L11.7456 4.3836C11.4576 4.48702 11.1739 4.60095 10.8944 4.72539L8.98313 3.39372C8.47821 3.03959 7.85932 2.87182 7.238 2.92067C6.61669 2.96951 6.03381 3.23176 5.59445 3.66013L3.7782 5.41956C3.336 5.84521 3.0653 6.40987 3.01488 7.01179C2.96445 7.6137 3.13763 8.21326 3.5032 8.70241L4.87763 10.554C4.74934 10.8244 4.63172 11.0993 4.52476 11.3785L2.20182 11.7461C1.58627 11.8415 1.02616 12.1469 0.622455 12.607C0.218748 13.0672 -0.00199551 13.6519 1.35944e-05 14.2558V16.7443C-0.00197037 17.3482 0.218769 17.9329 0.622448 18.393C1.02613 18.8531 1.58619 19.1584 2.2017 19.2539L4.52545 19.6217C4.63216 19.9002 4.74974 20.1747 4.8782 20.4452L3.5032 22.2975C3.13765 22.7867 2.96448 23.3862 3.0149 23.9881C3.06532 24.59 3.33602 25.1547 3.7782 25.5803L5.59457 27.3399C6.03395 27.7683 6.6168 28.0305 7.2381 28.0793C7.8594 28.1282 8.47827 27.9604 8.98319 27.6063L10.8948 26.2743C11.174 26.3986 11.4576 26.5125 11.7456 26.6162L12.125 28.867C12.2235 29.4633 12.5387 30.0059 13.0137 30.397C13.4887 30.7881 14.0923 31.0019 14.7157 31H17.2844C17.9078 31.0019 18.5113 30.7881 18.9863 30.397C19.4613 30.0059 19.7765 29.4634 19.875 28.8671L20.2547 26.616C20.5422 26.5126 20.8255 26.3987 21.1047 26.2742L23.0168 27.6063C23.5217 27.9604 24.1406 28.1282 24.7619 28.0794C25.3833 28.0305 25.9661 27.7683 26.4055 27.3399L28.2218 25.5803C28.664 25.1547 28.9347 24.59 28.9851 23.9881C29.0355 23.3862 28.8624 22.7867 28.4968 22.2975L27.1218 20.4456C27.2501 20.1752 27.3677 19.9005 27.4747 19.6215L29.7982 19.2539C30.4137 19.1585 30.9738 18.8531 31.3775 18.393C31.7813 17.9328 32.002 17.3481 32 16.7442V14.2557C32.002 13.6518 31.7812 13.0671 31.3776 12.607C30.9739 12.1469 30.4138 11.8416 29.7983 11.7461ZM29.3746 16.7442L26.2691 17.2357C26.0251 17.2743 25.7973 17.3789 25.612 17.5375C25.4267 17.696 25.2914 17.902 25.2216 18.1318C25.0292 18.7644 24.7676 19.3754 24.4413 19.9542C24.3226 20.1646 24.2678 20.4031 24.283 20.6424C24.2983 20.8816 24.383 21.1118 24.5275 21.3064L26.3654 23.7828L24.5491 25.5418L21.9928 23.761C21.792 23.6211 21.5545 23.5391 21.3076 23.5242C21.0608 23.5094 20.8146 23.5625 20.5976 23.6773C20.0002 23.9934 19.3696 24.2468 18.7167 24.4332C18.4796 24.5008 18.2669 24.6319 18.1032 24.8114C17.9396 24.9909 17.8316 25.2116 17.7917 25.448L17.2838 28.457L14.7156 28.4566L14.2083 25.4481C14.1684 25.2118 14.0604 24.9911 13.8967 24.8116C13.7331 24.6321 13.5204 24.501 13.2833 24.4334C12.6302 24.247 11.9995 23.9936 11.402 23.6775C11.1849 23.5626 10.9386 23.5094 10.6917 23.5242C10.4447 23.539 10.2071 23.6211 10.0063 23.761L7.45001 25.5414L5.63457 23.7819L7.47276 21.3055C7.61715 21.111 7.70187 20.8809 7.71715 20.6418C7.73244 20.4026 7.67766 20.1642 7.55913 19.9539C7.23291 19.3751 6.97134 18.7643 6.77888 18.1318C6.70913 17.9021 6.5738 17.6961 6.38848 17.5375C6.20316 17.379 5.97538 17.2744 5.73138 17.2358L2.62501 16.7437L2.62545 14.2558L5.7307 13.7643C5.97469 13.7257 6.20247 13.6211 6.38779 13.4625C6.57311 13.304 6.70844 13.098 6.7782 12.8682C6.9706 12.2354 7.23216 11.6243 7.55844 11.0452C7.67699 10.8349 7.73179 10.5964 7.71652 10.3573C7.70125 10.1181 7.61653 9.88804 7.47213 9.6935L5.63463 7.21719L7.45094 5.45825L10.0062 7.23833C10.207 7.37821 10.4445 7.46028 10.6914 7.47507C10.9383 7.48987 11.1844 7.43678 11.4015 7.32194C11.9993 7.00586 12.6301 6.75247 13.2834 6.56607C13.5206 6.4985 13.7332 6.3674 13.8969 6.18787C14.0605 6.00834 14.1685 5.78768 14.2084 5.55131L14.7162 2.54298L17.2844 2.5434L17.7917 5.55216C17.8316 5.78852 17.9396 6.00916 18.1033 6.18868C18.2669 6.3682 18.4796 6.49929 18.7167 6.56686C19.3698 6.75326 20.0005 7.00667 20.598 7.32279C20.8151 7.43769 21.0614 7.49079 21.3084 7.47596C21.5553 7.46114 21.7929 7.37899 21.9937 7.23899L24.55 5.45855L26.3657 7.2181L24.5275 9.69447C24.3831 9.889 24.2984 10.1191 24.2831 10.3583C24.2678 10.5974 24.3226 10.8359 24.4411 11.0462C24.7674 11.6249 25.0289 12.2357 25.2213 12.8682C25.2911 13.0979 25.4264 13.304 25.6117 13.4625C25.7971 13.621 26.0249 13.7256 26.2689 13.7642L29.3751 14.2564L29.3746 16.7442ZM16 8.73226C14.6183 8.73225 13.2676 9.12916 12.1187 9.8728C10.9699 10.6164 10.0744 11.6734 9.54568 12.9101C9.01691 14.1467 8.87856 15.5075 9.14811 16.8203C9.41766 18.1331 10.083 19.339 11.06 20.2855C12.037 21.232 13.2818 21.8766 14.637 22.1377C15.9922 22.3988 17.3968 22.2648 18.6734 21.7526C19.9499 21.2404 21.041 20.3729 21.8086 19.26C22.5763 18.147 22.986 16.8385 22.986 15.5C22.984 13.7057 22.2473 11.9855 20.9376 10.7167C19.6279 9.44791 17.8522 8.73425 16 8.73226ZM16 19.7247C15.1375 19.7247 14.2943 19.477 13.5771 19.0127C12.8599 18.5485 12.3009 17.8887 11.9709 17.1167C11.6408 16.3447 11.5544 15.4953 11.7227 14.6757C11.8909 13.8562 12.3063 13.1034 12.9162 12.5126C13.5261 11.9217 14.3032 11.5194 15.1492 11.3563C15.9951 11.1933 16.872 11.277 17.6689 11.5968C18.4658 11.9165 19.1469 12.458 19.6261 13.1528C20.1052 13.8476 20.361 14.6644 20.361 15.5C20.3597 16.6201 19.8998 17.6939 19.0822 18.4859C18.2647 19.2779 17.1562 19.7234 16 19.7247Z" fill="#00004B"/>
</svg>
