<svg width="33" height="33" viewBox="0 0 33 33" fill="none" xmlns="http://www.w3.org/2000/svg">
<path d="M31.7109 0H1.28909C0.57707 0 0 0.577058 0 1.28906V24.105C0 24.8168 0.57707 25.3938 1.28909 25.3938H17.7459V31.7102C17.7459 32.8651 19.1415 33.4266 19.9467 32.6216L22.8708 29.6976L25.7619 32.5887C26.5717 33.3981 27.9625 32.8246 27.9625 31.6773V25.3938H31.7109C32.4227 25.3938 33 24.8168 33 24.105V1.28906C33 0.577058 32.4227 0 31.7109 0ZM25.3845 28.5654L23.7822 26.9631C23.2789 26.4598 22.4627 26.4598 21.9594 26.9631L20.3241 28.5981V17.7886H25.3845V28.5654ZM30.4218 22.8159H27.9625V16.4995C27.9625 15.7878 27.3854 15.2105 26.6736 15.2105H19.035C18.3232 15.2105 17.7459 15.7878 17.7459 16.4995V22.8159H2.57818V2.57813H30.4218V22.8159ZM5.07026 6.35922C5.07026 5.64721 5.64733 5.07015 6.35935 5.07015H26.6406C27.3524 5.07015 27.9297 5.64721 27.9297 6.35922C27.9297 7.07122 27.3524 7.64828 26.6406 7.64828H6.35935C5.64733 7.64828 5.07026 7.07122 5.07026 6.35922ZM5.07026 11.4294C5.07026 10.7174 5.64733 10.1403 6.35935 10.1403H26.6406C27.3524 10.1403 27.9297 10.7174 27.9297 11.4294C27.9297 12.1414 27.3524 12.7184 26.6406 12.7184H6.35935C5.64733 12.7184 5.07026 12.1414 5.07026 11.4294ZM5.07026 16.4995C5.07026 15.7878 5.64733 15.2105 6.35935 15.2105H13.9647C14.6768 15.2105 15.2538 15.7878 15.2538 16.4995C15.2538 17.2115 14.6768 17.7886 13.9647 17.7886H6.35935C5.64733 17.7886 5.07026 17.2115 5.07026 16.4995Z" fill="#00004B"/>
</svg>
