<svg width="120" height="113" viewBox="0 0 120 113" fill="none" xmlns="http://www.w3.org/2000/svg">
<path d="M106.688 0H13.3249C5.97488 0 0 5.97488 0 13.3125V99.1748C0 106.525 5.97488 112.5 13.3249 112.5H106.688C114.025 112.5 120 106.525 120 99.1748V13.3125C120 5.97488 114.025 0 106.688 0ZM117.5 99.1751C117.5 105.15 112.65 110 106.688 110H13.3249C7.35 110 2.49975 105.15 2.49975 99.1751V27.675H117.5V99.1751ZM117.5 25.1749H2.50012V13.3125C2.50012 7.35 7.35 2.50012 13.3252 2.50012H106.688C112.65 2.50012 117.5 7.35 117.5 13.3125V25.1749Z" fill="white"/>
<path d="M60.0122 41.7375C45.0621 41.7375 32.9121 53.8875 32.9121 68.8377C32.9121 83.775 45.0621 95.9378 60.0122 95.9378C74.9372 95.9378 87.0872 83.7754 87.0872 68.8377C87.0872 53.8875 74.9372 41.7375 60.0122 41.7375ZM72.3497 72.7624L57.1375 82.0126C54.0749 83.8752 50.1625 81.6627 50.1625 78.1002V59.5752C50.1625 56.0003 54.0876 53.8002 57.1375 55.65L72.3501 64.9125C73.8126 65.8125 74.5502 67.3249 74.5502 68.8377C74.5499 70.35 73.8122 71.8624 72.3497 72.7624Z" fill="white"/>
<path d="M25.7747 13.8376C25.7747 17.7125 22.6371 20.8625 18.7622 20.8625C14.8997 20.8625 11.7373 17.7125 11.7373 13.8376C11.7373 9.96274 14.8997 6.81274 18.7622 6.81274C22.6374 6.81274 25.7747 9.96274 25.7747 13.8376Z" fill="white"/>
<path d="M46.9128 13.8376C46.9128 17.7125 43.7751 20.8625 39.9002 20.8625C36.0254 20.8625 32.875 17.7125 32.875 13.8376C32.875 9.96274 36.025 6.81274 39.9002 6.81274C43.7751 6.81274 46.9128 9.96274 46.9128 13.8376Z" fill="white"/>
<path d="M101.225 6.81274H61.0376C57.1627 6.81274 54.0127 9.96274 54.0127 13.8376C54.0127 17.7125 57.1627 20.8625 61.0376 20.8625H101.225C105.1 20.8625 108.25 17.7125 108.25 13.8376C108.25 9.96274 105.1 6.81274 101.225 6.81274ZM101.225 18.3627H61.0376C58.5502 18.3627 56.5124 16.3254 56.5124 13.8376C56.5124 11.3375 58.5498 9.31249 61.0376 9.31249H101.225C103.725 9.31249 105.75 11.3375 105.75 13.8376C105.75 16.325 103.725 18.3627 101.225 18.3627Z" fill="white"/>
</svg>
