<svg width="118" height="132" viewBox="0 0 118 132" fill="none" xmlns="http://www.w3.org/2000/svg">
<path d="M55.0703 2.73185V2.74639C55.0849 2.73185 55.0849 2.73185 55.0849 2.73185H55.0703ZM55.0703 2.73185V2.74639C55.0849 2.73185 55.0849 2.73185 55.0849 2.73185H55.0703Z" fill="white"/>
<path d="M105.526 23.9245H100.651L97.3743 12.8094L105.745 6.80106C107.616 5.46273 106.741 2.5542 104.461 2.4313L55.0707 0.0008385C54.5247 -0.01268 54.0057 0.137252 53.5686 0.451455L20.8374 23.9245H12.0438C5.4074 23.9245 0.0135173 29.3184 0.0135173 35.9548C0.0135173 39.7645 0 88.1854 0 100.161C0 106.811 5.4074 112.205 12.0438 112.205H49.1992C49.0353 115.249 47.67 118.226 45.3485 120.588H39.7637C36.8687 120.588 34.5066 122.923 34.5066 125.832C34.5066 128.727 36.8691 131.089 39.7637 131.089H77.8204C80.7014 131.089 83.0639 128.754 83.0639 125.832C83.0639 122.951 80.7154 120.588 77.8204 120.588H72.2216C69.9141 118.226 68.5348 115.249 68.3709 112.205H105.526C112.163 112.205 117.57 106.811 117.57 100.161V35.9548C117.57 29.3184 112.163 23.9245 105.526 23.9245ZM102.44 39.6826C103.014 41.6624 101.594 43.7382 100.16 45.2403C90.1644 55.7549 54.2924 66.3239 40.1869 62.9099C38.316 62.4592 36.1588 61.5855 35.4075 59.824C35.2436 59.4278 35.8581 61.4626 27.8563 34.2891L64.0561 36.0641C64.4792 36.0777 65.0937 35.9412 65.5853 35.6135L85.904 21.0434L89.3451 32.705C87.4742 34.6713 87.4882 40.2016 88.1571 42.4957C88.9764 45.2813 91.8985 46.879 94.698 46.0597C97.4837 45.2403 99.0813 42.3044 98.262 39.5187C97.9343 38.3852 97.0195 36.6377 95.8586 35.108C94.698 33.5788 93.2913 32.2679 91.9534 31.9402L88.253 19.3503L95.0122 14.5164L95.0257 14.5029C95.0393 14.5439 95.0532 14.5849 95.0532 14.6258C95.0667 14.6668 95.0806 14.6942 95.0806 14.7213C95.1081 14.7758 95.1216 14.8167 95.1216 14.8442C95.1351 14.8716 95.1351 14.8851 95.1351 14.8987C95.5308 16.2366 97.101 21.562 102.44 39.6826ZM54.4972 3.15516C54.5108 3.14164 54.5247 3.12771 54.5382 3.12771C54.5656 3.10027 54.6066 3.07323 54.6476 3.04578C54.6611 3.03226 54.675 3.01833 54.6885 3.01833C54.7295 2.97737 54.8114 2.92289 54.8389 2.90896C54.9208 2.84055 54.9753 2.79958 55.0302 2.77254C55.0437 2.75903 55.0576 2.7451 55.0712 2.7451V2.73158H55.0847L103.41 5.12108C103.274 5.21653 86.8192 17.0145 86.3002 17.3832L66.5275 14.9662C65.2576 13.2732 62.0488 12.8086 58.3344 13.9012C54.0466 15.1711 51.4388 17.8338 52.1487 20.2233C53.0225 23.2273 57.7474 23.0634 60.7788 22.1622C63.0594 21.4932 66.0359 19.9775 66.8691 17.7654L83.0229 19.7317L64.0835 33.3186L15.7306 30.957C44.2289 10.5154 52.4629 4.60246 54.4972 3.15516ZM77.8204 123.32C79.1997 123.32 80.3328 124.453 80.3328 125.832C80.3328 127.252 79.1857 128.358 77.8204 128.358H39.7637C38.3709 128.358 37.2374 127.225 37.2374 125.832C37.2374 124.426 38.3709 123.32 39.7637 123.32H77.8204ZM68.6302 120.589H48.9395C50.7555 118.076 51.807 115.168 51.9435 112.205H65.6394C65.7627 115.168 66.8142 118.076 68.6302 120.589ZM114.839 92.5957H2.74467V35.9548C2.74467 30.8341 6.9096 26.6557 12.0438 26.6557H17.028L13.3956 29.2639C11.5247 30.5748 12.344 33.5243 14.652 33.6472L24.9617 34.1523C32.0622 58.2398 32.4174 59.8375 32.9225 60.971C34.056 63.5653 36.7867 64.9036 39.5453 65.5726C48.5577 67.7438 63.5919 64.535 72.4949 61.9132C81.4528 59.2779 95.7357 53.843 102.14 47.1247C104.311 44.8442 105.95 41.9222 105.062 38.9043C105.021 38.7678 101.649 27.3111 101.457 26.6557H105.526C110.661 26.6557 114.839 30.8341 114.839 35.9548V92.5957Z" fill="white"/>
</svg>
