<svg width="70" height="115" viewBox="0 0 70 115" fill="none" xmlns="http://www.w3.org/2000/svg">
<path d="M51.6306 50.0853V43.2931C51.6306 41.1009 50.3487 39.2321 48.5159 38.3218L66.3529 6.18164C67.8863 3.40258 65.8857 0.00035918 62.7231 0.00035918H49.8693C48.3599 0.00035918 46.9584 0.826927 46.2277 2.14476L36.1533 20.3167L26.0789 2.14404C25.3479 0.826568 23.9464 0 22.437 0H9.58315C6.42063 0 4.40812 3.40222 5.95344 6.18128L23.4673 37.7346H23.1917C20.137 37.7346 17.6454 40.2261 17.6454 43.2931V50.1453C7.12753 56.0991 0 67.3954 0 80.3211C0 99.4518 15.561 115.001 34.6799 115.001C53.7987 115.001 69.3598 99.4518 69.3598 80.3211C69.3598 67.3591 62.1963 56.0387 51.6306 50.0853ZM48.3244 3.30627C48.6359 2.74312 49.2228 2.39597 49.8697 2.39597H62.7235C64.0773 2.39597 64.9038 3.85755 64.257 5.00756L46.1081 37.7346H29.2292L48.3244 3.30627ZM8.05004 5.0072C7.3913 3.83311 8.2416 2.39561 9.58351 2.39561H22.4373C23.0842 2.39561 23.6711 2.74312 23.9827 3.30591L34.7758 22.7841C27.5642 35.7936 26.618 37.4945 26.5342 37.6623C26.5224 37.6742 26.5224 37.6742 26.5224 37.6742C26.5105 37.6861 26.4983 37.7101 26.4864 37.7342H26.1989L8.05004 5.0072ZM20.0414 43.2931C20.0414 41.544 21.4548 40.1306 23.1917 40.1306H46.0721C47.8212 40.1306 49.2347 41.544 49.2347 43.2931V48.8516C45.1255 46.9469 39.9868 45.6531 34.6799 45.6531C29.2414 45.6531 24.0664 47.0069 20.0414 48.8875V43.2931ZM13.2492 65.5385C12.7219 65.1432 12.6264 64.3885 13.0217 63.8613C17.1067 58.5066 22.9523 54.865 29.4811 53.595C30.128 53.4753 30.763 53.8943 30.8827 54.5534C31.0146 55.2003 30.5833 55.8231 29.9365 55.955C23.9827 57.105 18.652 60.4231 14.9264 65.3107C14.5307 65.8379 13.776 65.9457 13.2492 65.5385ZM52.8166 79.4701L45.4493 84.813C45.1018 85.0645 44.9462 85.5436 45.0781 85.9511L47.8931 94.6003C48.9112 97.7509 45.3174 100.362 42.6462 98.4215L35.279 93.0787C34.9196 92.8152 34.4405 92.8152 34.0812 93.0787L26.7139 98.4215C24.0427 100.374 20.4489 97.7506 21.467 94.6003L24.282 85.9511C24.4139 85.5317 24.2579 85.0768 23.9108 84.813L16.5436 79.4701C13.8723 77.5176 15.2379 73.2888 18.5561 73.2888H27.6602C28.0914 73.2888 28.4867 73.0013 28.6186 72.5819L31.4336 63.921C32.4517 60.7825 36.8962 60.7703 37.9265 63.921L40.7415 72.5819C40.8734 73.0013 41.2687 73.2888 41.7 73.2888H50.8041C52.9003 73.2888 54.23 75.002 54.23 76.7389C54.23 77.7451 53.7987 78.7636 52.8166 79.4701Z" fill="white"/>
</svg>
