<svg width="27" height="28" viewBox="0 0 27 28" fill="none" xmlns="http://www.w3.org/2000/svg">
<path d="M25.4457 13.153H10.2988L13.9575 9.50216C14.4402 9.02039 14.4402 8.23934 13.9575 7.75757C13.4747 7.2758 12.692 7.2758 12.2092 7.75757L6.44022 13.5143C5.95743 13.996 5.95743 14.7771 6.44022 15.2589L12.2092 21.016C12.4506 21.2569 12.7669 21.3774 13.0833 21.3774C13.3996 21.3773 13.7161 21.2569 13.9574 21.0161C14.4401 20.5343 14.4402 19.7533 13.9574 19.2715L10.2986 15.6203H25.4457C26.1284 15.6203 26.6819 15.068 26.6819 14.3867C26.6819 13.7054 26.1284 13.153 25.4457 13.153Z" fill="#00004B"/>
<path d="M14.3172 25.5248H3.29056V3.24869H14.3172C15.1114 3.24869 15.7554 2.69459 15.7554 2.01112C15.7554 1.32766 15.1114 0.77356 14.3172 0.77356H1.85231C1.05802 0.77356 0.414062 1.32766 0.414062 2.01112V26.7624C0.414062 27.4459 1.05802 28 1.85231 28H14.3172C15.1114 28 15.7554 27.4459 15.7554 26.7624C15.7554 26.0789 15.1114 25.5248 14.3172 25.5248Z" fill="#00004B"/>
</svg>
