<svg width="36" height="38" viewBox="0 0 36 38" fill="none" xmlns="http://www.w3.org/2000/svg">
<path d="M24.7206 23.9195C25.5501 23.4897 26.09 23.6799 26.5155 24.554C27.1322 25.8211 27.9551 26.9194 29.0068 27.8333C29.8306 28.5493 30.1362 29.7427 29.7772 30.7924C29.4126 31.8596 28.451 32.5931 27.3506 32.5989C25.1668 32.6106 22.983 32.6067 20.7991 32.5989C20.5507 32.598 20.4598 32.661 20.3811 32.9269C19.6707 35.3301 18.1335 36.7795 15.7135 37.1851C15.6882 37.189 15.6676 37.2278 15.6451 37.2491H14.1727C14.1258 37.1278 14.0124 37.1744 13.9299 37.155C11.6486 36.6059 10.163 35.1865 9.5332 32.8405C9.47509 32.6261 9.37667 32.5989 9.19297 32.5999C7.01945 32.6057 4.84687 32.6077 2.67336 32.6018C1.45491 32.5989 0.497963 31.8655 0.117433 30.6731C0.0911898 30.5897 0.117433 30.4713 0.00683594 30.4257V29.3371C0.119308 29.2954 0.0996252 29.177 0.124931 29.0946C0.278643 28.5842 0.558885 28.1651 0.945976 27.8158C3.28633 25.7018 4.46166 23.0298 4.49259 19.8204C4.50665 18.3341 4.48415 16.8468 4.49915 15.3604C4.54976 10.4677 7.88642 6.16194 12.479 5.04815C13.1136 4.89389 13.5794 5.17622 13.8962 5.90484C13.9055 6.79063 13.6581 7.12923 12.8408 7.35044C9.57069 8.23526 7.14598 11.1439 6.79826 14.5988C6.6811 15.7572 6.76077 16.9195 6.74202 18.0789C6.72422 19.1791 6.79357 20.2822 6.65579 21.3766C6.24996 24.6113 4.87687 27.322 2.51496 29.4885C2.35562 29.635 2.17567 29.7718 2.28439 30.0337C2.38655 30.2802 2.59837 30.2821 2.81676 30.2821C10.9147 30.2802 19.0127 30.2802 27.1116 30.2821C27.3403 30.2821 27.5652 30.2879 27.6599 30.0095C27.7508 29.7398 27.5549 29.6136 27.4003 29.472C26.1856 28.363 25.2136 27.062 24.4938 25.5592C24.1639 24.8703 24.2155 24.489 24.7225 23.9205L24.7206 23.9195ZM14.9909 32.6057C14.0349 32.6057 13.0779 32.6125 12.1219 32.6009C11.8595 32.598 11.7892 32.6465 11.9213 32.9133C12.5578 34.2017 13.5747 34.908 14.9656 34.91C16.3743 34.9119 17.3931 34.1881 18.0267 32.8842C18.1279 32.6766 18.1204 32.597 17.8599 32.6009C16.9039 32.6145 15.9478 32.6057 14.9909 32.6057Z" fill="#00F0CC"/>
<path d="M23.8769 19.9379C20.1682 18.8445 17.7425 16.4054 16.749 12.5323C16.2326 10.5201 16.3844 8.5157 17.0996 6.56365C17.1324 6.47439 17.1549 6.38223 17.182 6.29103C17.8156 4.81341 18.6854 3.51334 19.8926 2.47426C22.0249 0.640578 24.4768 -0.185063 27.2352 0.148686C31.5616 0.673564 34.8017 3.76365 35.7249 8.1606C36.8234 13.3977 33.4155 18.8503 28.3524 19.9699C26.8556 20.3007 25.3672 20.292 23.8779 19.9379H23.8769ZM26.1864 17.8645C30.3028 17.8694 33.6564 14.4048 33.6554 10.1485C33.6554 5.89712 30.2916 2.4141 26.1901 2.41702C22.0718 2.4209 18.7342 5.87966 18.7332 10.1447C18.7332 14.4194 22.0549 17.8597 26.1864 17.8645Z" fill="#00F0CC"/>
<path d="M27.7084 10.5508C27.7084 11.5666 27.7159 12.5824 27.7056 13.5982C27.7 14.1522 27.3719 14.6034 26.9042 14.7537C26.4394 14.9031 25.9632 14.7411 25.6558 14.3385C25.4627 14.0853 25.4281 13.7932 25.4281 13.4847C25.4309 11.9858 25.4215 10.4858 25.4356 8.98686C25.4384 8.68707 25.3634 8.57841 25.0672 8.60266C24.8141 8.62401 24.5536 8.63856 24.3052 8.54057C23.786 8.33392 23.4814 7.80128 23.5657 7.24438C23.6444 6.71853 24.0859 6.28194 24.6304 6.25963C25.295 6.23246 25.9632 6.22761 26.6268 6.26254C27.2651 6.2965 27.7 6.81652 27.7056 7.5044C27.715 8.5202 27.7075 9.536 27.7075 10.5518L27.7084 10.5508Z" fill="#00F0CC"/>
</svg>
