<svg width="33" height="26" viewBox="0 0 33 26" fill="none" xmlns="http://www.w3.org/2000/svg">
<path fill-rule="evenodd" clip-rule="evenodd" d="M7.41005 8.00419H19.626C19.8734 8.81126 20.4077 9.50395 21.1315 9.95586C21.8552 10.4078 22.72 10.5887 23.5681 10.4658C24.4163 10.3428 25.1912 9.92411 25.7515 9.28606C26.3117 8.64802 26.62 7.83317 26.62 6.99022C26.62 6.14727 26.3117 5.33243 25.7515 4.69438C25.1912 4.05633 24.4163 3.63762 23.5681 3.51466C22.72 3.3917 21.8552 3.57268 21.1315 4.02458C20.4077 4.47649 19.8734 5.16918 19.626 5.97625H7.41005C7.13654 5.97625 6.87424 6.08308 6.68084 6.27324C6.48745 6.46339 6.3788 6.7213 6.3788 6.99022C6.3788 7.25914 6.48745 7.51705 6.68084 7.7072C6.87424 7.89736 7.13654 8.00419 7.41005 8.00419ZM23.0471 15.497C22.2798 15.4978 21.533 15.7412 20.917 16.1911C20.301 16.641 19.8484 17.2737 19.626 17.9958H7.41005C7.13654 17.9958 6.87424 18.1026 6.68084 18.2928C6.48745 18.483 6.3788 18.7409 6.3788 19.0098C6.3788 19.2787 6.48745 19.5366 6.68084 19.7268C6.87424 19.9169 7.13654 20.0237 7.41005 20.0237H19.626C19.817 20.6473 20.1805 21.2064 20.6759 21.6386C21.1713 22.0709 21.7791 22.3592 22.4316 22.4715C23.084 22.5838 23.7553 22.5156 24.3706 22.2745C24.9858 22.0334 25.5209 21.6289 25.9159 21.1062C26.311 20.5835 26.5505 19.9631 26.6077 19.3143C26.665 18.6655 26.5378 18.0138 26.2402 17.432C25.9426 16.8502 25.4865 16.3612 24.9226 16.0195C24.3588 15.6778 23.7095 15.4969 23.0471 15.497ZM9.95266 16.5154C9.2898 16.5159 8.63985 16.3352 8.07541 15.9935C7.51096 15.6518 7.05424 15.1625 6.75626 14.5803C6.45828 13.9981 6.33077 13.346 6.38797 12.6967C6.44516 12.0473 6.68482 11.4264 7.08017 10.9033C7.47552 10.3802 8.011 9.97538 8.62679 9.73418C9.24259 9.49298 9.91446 9.42484 10.5674 9.53739C11.2203 9.64993 11.8285 9.93872 12.3241 10.3715C12.8197 10.8043 13.1832 11.364 13.374 11.9882H25.5897C25.7255 11.9871 25.8602 12.0125 25.986 12.0629C26.1118 12.1133 26.2262 12.1876 26.3227 12.2817C26.4191 12.3758 26.4956 12.4877 26.5478 12.611C26.6001 12.7342 26.627 12.8665 26.627 13C26.627 13.1336 26.6001 13.2658 26.5478 13.3891C26.4956 13.5124 26.4191 13.6243 26.3227 13.7184C26.2262 13.8124 26.1118 13.8868 25.986 13.9372C25.8602 13.9875 25.7255 14.0129 25.5897 14.0119H13.374C13.1525 14.7349 12.7002 15.3687 12.0841 15.8195C11.4679 16.2703 10.7206 16.5142 9.95253 16.5151L9.95266 16.5154ZM2.0625 3.25509C2.06253 2.92971 2.19401 2.61767 2.42802 2.3876C2.66202 2.15753 2.97939 2.02827 3.31031 2.02825H29.6895C29.8534 2.02816 30.0157 2.05983 30.1671 2.12145C30.3186 2.18306 30.4562 2.27342 30.5721 2.38736C30.688 2.5013 30.7799 2.63658 30.8426 2.78547C30.9053 2.93436 30.9376 3.09394 30.9375 3.25509V22.7449C30.9376 22.906 30.9053 23.0656 30.8426 23.2145C30.7799 23.3634 30.688 23.4987 30.5722 23.6126C30.4563 23.7265 30.3187 23.8169 30.1673 23.8785C30.0159 23.9402 29.8536 23.9719 29.6897 23.9718H3.31031C2.97938 23.9718 2.66202 23.8425 2.42801 23.6124C2.19401 23.3823 2.06253 23.0703 2.0625 22.7449V3.25509ZM3.31031 26C2.43253 25.9993 1.59089 25.6562 0.970231 25.0458C0.349568 24.4355 0.000614525 23.608 0 22.7449L0 3.25509C0.000614525 2.39201 0.349568 1.56446 0.970231 0.95415C1.59089 0.343841 2.43253 0.000671441 3.31031 0H29.6895C30.5673 0.000621091 31.409 0.343768 32.0297 0.954082C32.6504 1.5644 32.9994 2.39198 33 3.25509V22.7449C32.9994 23.608 32.6504 24.4356 32.0297 25.0459C31.409 25.6563 30.5673 25.9994 29.6894 26H3.31031Z" fill="#00004B"/>
</svg>
