<svg width="32" height="31" viewBox="0 0 32 31" fill="none" xmlns="http://www.w3.org/2000/svg">
<path fill-rule="evenodd" clip-rule="evenodd" d="M17.6194 26.3572C14.6802 26.3562 11.5487 26.3542 9.23672 26.3491C6.68296 26.3491 4.53189 24.4439 4.22228 21.9093C4.22228 21.9023 4.22127 21.8952 4.22026 21.8881C3.8115 17.8409 3.78416 13.2534 3.78214 8.12466C2.58114 8.04979 1.53192 7.26568 1.12518 6.12235C0.623332 4.76048 0.621309 3.4148 1.09483 2.07923C1.5218 0.863055 2.67018 0.0485497 3.95921 0.0495615C8.33116 0.0495615 23.4969 0.0495548 27.882 0.0616963C29.165 0.0616963 30.3083 0.87317 30.7333 2.08327C31.2189 3.41884 31.2189 4.75844 30.7444 6.10716C30.3407 7.26668 29.2803 8.06295 28.0662 8.13782C28.0652 11.5668 28.053 14.5344 27.9185 17.4089C29.8358 18.6767 31.1016 20.852 31.1016 23.3208C31.1016 27.2293 27.9276 30.4033 24.019 30.4033C21.1961 30.4033 18.7567 28.748 17.6194 26.3572ZM24.019 18.2618C26.8116 18.2618 29.078 20.5282 29.078 23.3208C29.078 26.1133 26.8116 28.3797 24.019 28.3797C21.2265 28.3797 18.96 26.1133 18.96 23.3208C18.96 20.5282 21.2265 18.2618 24.019 18.2618ZM21.699 23.9258L22.9313 25.0732C23.33 25.4435 23.9502 25.4334 24.3347 25.0489L26.3643 23.0254C26.7599 22.6308 26.761 21.9903 26.3664 21.5947C25.9718 21.1991 25.3303 21.198 24.9357 21.5926L23.5961 22.9272L23.078 22.4446C22.6693 22.0641 22.0278 22.0874 21.6474 22.4952C21.2669 22.9039 21.2902 23.5454 21.699 23.9258ZM19.9678 8.1439V13.2029C19.9678 13.5762 19.7624 13.9192 19.4336 14.0953C19.1047 14.2713 18.7051 14.2521 18.3944 14.0447L15.9196 12.3954L13.4427 14.0447C13.1331 14.2521 12.7335 14.2713 12.4046 14.0953C12.0758 13.9192 11.8704 13.5762 11.8704 13.2029V8.1439H5.80572C5.80775 13.1836 5.83102 17.6932 6.23372 21.6807C6.42596 23.1923 7.71195 24.3255 9.23672 24.3255H9.23874C11.3908 24.3306 14.2532 24.3326 17.0083 24.3336C16.9607 24.0027 16.9365 23.6648 16.9365 23.3208C16.9365 19.4122 20.1105 16.2382 24.019 16.2382C24.6817 16.2382 25.3242 16.3293 25.9323 16.5003C26.0325 13.9081 26.0416 11.2127 26.0426 8.1439H19.9678ZM13.9041 18.2608L17.9402 18.2618C18.4987 18.2618 18.952 17.8085 18.952 17.25C18.952 16.6925 18.4987 16.2382 17.9402 16.2382L13.9041 16.2372C13.3456 16.2372 12.8923 16.6905 12.8923 17.249C12.8923 17.8075 13.3456 18.2608 13.9041 18.2608ZM17.9442 11.3128L16.4801 10.3375C16.1402 10.1108 15.698 10.1108 15.3581 10.3375L13.894 11.3128V2.07111H17.9442V11.3128ZM19.9678 2.07617C23.329 2.0782 26.3006 2.08123 27.879 2.08528H27.882C28.307 2.08528 28.6854 2.35543 28.825 2.75711C28.827 2.76217 28.8291 2.76623 28.8301 2.77129C29.1528 3.6566 29.1498 4.54396 28.8351 5.43737C28.8351 5.43838 28.8341 5.43938 28.8341 5.44039C28.6925 5.84815 28.309 6.12032 27.878 6.12032C26.2996 6.12032 23.328 6.12031 19.9678 6.1193V2.07617ZM11.8704 2.07417V6.11627C8.51632 6.11425 5.55177 6.11222 3.9754 6.10716C3.97439 6.10716 3.97337 6.10716 3.97236 6.10716C3.54842 6.10716 3.17102 5.84005 3.03038 5.44039C3.02836 5.43534 3.02634 5.43027 3.02533 5.42622C2.69245 4.52573 2.68941 3.63636 3.00307 2.75307C3.00307 2.75206 3.00306 2.75105 3.00407 2.75004C3.14573 2.34431 3.52919 2.07315 3.95921 2.07315C5.53356 2.07315 8.5062 2.07315 11.8704 2.07417Z" fill="white"/>
</svg>
