<svg width="32" height="31" viewBox="0 0 32 31" fill="none" xmlns="http://www.w3.org/2000/svg">
<path fill-rule="evenodd" clip-rule="evenodd" d="M17.6175 26.3572C14.6782 26.3562 11.5467 26.3542 9.23477 26.3491C6.681 26.3491 4.52994 24.4439 4.22033 21.9093C4.22033 21.9023 4.21932 21.8952 4.21831 21.8881C3.80954 17.8409 3.78221 13.2534 3.78019 8.12466C2.57919 8.04979 1.52997 7.26568 1.12323 6.12235C0.621378 4.76048 0.619356 3.4148 1.09287 2.07923C1.51985 0.863055 2.66823 0.0485497 3.95725 0.0495615C8.32921 0.0495615 23.495 0.0495548 27.8801 0.0616963C29.163 0.0616963 30.3064 0.87317 30.7313 2.08327C31.217 3.41884 31.217 4.75844 30.7424 6.10716C30.3387 7.26668 29.2784 8.06295 28.0642 8.13782C28.0632 11.5668 28.0511 14.5344 27.9165 17.4089C29.8339 18.6767 31.0996 20.852 31.0996 23.3208C31.0996 27.2293 27.9256 30.4033 24.0171 30.4033C21.1942 30.4033 18.7547 28.748 17.6175 26.3572ZM24.0171 18.2618C26.8096 18.2618 29.076 20.5282 29.076 23.3208C29.076 26.1133 26.8096 28.3797 24.0171 28.3797C21.2245 28.3797 18.9581 26.1133 18.9581 23.3208C18.9581 20.5282 21.2245 18.2618 24.0171 18.2618ZM21.697 23.9258L22.9294 25.0732C23.328 25.4435 23.9483 25.4334 24.3327 25.0489L26.3624 23.0254C26.758 22.6308 26.759 21.9903 26.3644 21.5947C25.9698 21.1991 25.3283 21.198 24.9337 21.5926L23.5941 22.9272L23.0761 22.4446C22.6673 22.0641 22.0259 22.0874 21.6454 22.4952C21.265 22.9039 21.2883 23.5454 21.697 23.9258ZM19.9658 8.1439V13.2029C19.9658 13.5762 19.7604 13.9192 19.4316 14.0953C19.1028 14.2713 18.7031 14.2521 18.3925 14.0447L15.9177 12.3954L13.4408 14.0447C13.1312 14.2521 12.7315 14.2713 12.4027 14.0953C12.0739 13.9192 11.8685 13.5762 11.8685 13.2029V8.1439H5.80377C5.80579 13.1836 5.82907 17.6932 6.23176 21.6807C6.424 23.1923 7.71 24.3255 9.23477 24.3255H9.23679C11.3889 24.3306 14.2512 24.3326 17.0063 24.3336C16.9588 24.0027 16.9345 23.6648 16.9345 23.3208C16.9345 19.4122 20.1085 16.2382 24.0171 16.2382C24.6798 16.2382 25.3223 16.3293 25.9304 16.5003C26.0305 13.9081 26.0396 11.2127 26.0406 8.1439H19.9658ZM13.9022 18.2608L17.9382 18.2618C18.4967 18.2618 18.95 17.8085 18.95 17.25C18.95 16.6925 18.4967 16.2382 17.9382 16.2382L13.9022 16.2372C13.3437 16.2372 12.8904 16.6905 12.8904 17.249C12.8904 17.8075 13.3437 18.2608 13.9022 18.2608ZM17.9423 11.3128L16.4782 10.3375C16.1382 10.1108 15.6961 10.1108 15.3561 10.3375L13.892 11.3128V2.07111H17.9423V11.3128ZM19.9658 2.07617C23.327 2.0782 26.2987 2.08123 27.877 2.08528H27.8801C28.305 2.08528 28.6834 2.35543 28.8231 2.75711C28.8251 2.76217 28.8271 2.76623 28.8281 2.77129C29.1509 3.6566 29.1479 4.54396 28.8332 5.43737C28.8332 5.43838 28.8322 5.43938 28.8322 5.44039C28.6905 5.84815 28.3071 6.12032 27.876 6.12032C26.2976 6.12032 23.326 6.12031 19.9658 6.1193V2.07617ZM11.8685 2.07417V6.11627C8.51437 6.11425 5.54982 6.11222 3.97345 6.10716C3.97244 6.10716 3.97142 6.10716 3.97041 6.10716C3.54647 6.10716 3.16907 5.84005 3.02843 5.44039C3.0264 5.43534 3.02439 5.43027 3.02338 5.42622C2.6905 4.52573 2.68746 3.63636 3.00112 2.75307C3.00112 2.75206 3.00111 2.75105 3.00212 2.75004C3.14377 2.34431 3.52724 2.07315 3.95725 2.07315C5.5316 2.07315 8.50425 2.07315 11.8685 2.07417Z" fill="#00004B"/>
</svg>
