<svg width="26" height="26" viewBox="0 0 26 26" fill="none" xmlns="http://www.w3.org/2000/svg" id="icon">
  <path d="M14.0496 26.0001H11.9192C11.5105 25.941 11.0972 25.9032 10.6938 25.8196C5.57645 24.7555 2.19144 21.7351 0.529448 16.7854C0.235531 15.9098 0.106155 14.9969 0 14.0821C0 13.3722 0 12.6617 0 11.9519C0.0676738 11.4842 0.117434 11.0139 0.205675 10.5501C1.54256 3.50947 8.40615 -1.1277 15.4608 0.238904C22.4445 1.59224 27.1027 8.30984 25.7724 15.2981C24.7766 20.5297 21.6032 23.9197 16.5343 25.535C15.7275 25.7924 14.8882 25.8999 14.0489 25.9994L14.0496 26.0001ZM12.9622 23.8049C18.9115 23.8135 23.7568 18.9966 23.7734 13.0571C23.79 7.09581 18.9692 2.24171 13.0186 2.22844C7.05731 2.21451 2.20603 7.03677 2.19475 12.9888C2.18347 18.9488 7.00888 23.7963 12.9622 23.8049Z" fill="#D9D9D9" fill-opacity="0.5"/>
  <path d="M9.36625 13.0158C9.36625 11.3175 9.36625 9.61853 9.36625 7.92023C9.36625 7.82735 9.36625 7.73448 9.36625 7.6416C9.37686 6.75264 10.0715 6.29423 10.8929 6.63986C11.0468 6.70488 11.1901 6.80041 11.3268 6.89859C13.6795 8.59159 16.0301 10.2872 18.3815 11.9822C18.416 12.0068 18.4498 12.032 18.4836 12.0572C19.2871 12.6529 19.2897 13.5081 18.4803 14.0932C16.6724 15.4007 14.8611 16.7023 13.0512 18.0066C12.4481 18.4411 11.845 18.877 11.2412 19.3115C10.9825 19.4979 10.7011 19.6266 10.3747 19.6239C9.89968 19.62 9.53212 19.3294 9.42132 18.8677C9.37554 18.6779 9.36426 18.4849 9.36426 18.2892C9.36625 16.5312 9.36559 14.7738 9.36559 13.0158H9.36625ZM11.5809 12.9913C11.5809 13.9877 11.5802 14.9835 11.5822 15.9799C11.5822 16.0509 11.5457 16.1457 11.632 16.1855C11.7017 16.218 11.7547 16.1457 11.8071 16.1079C13.162 15.1294 14.5148 14.1476 15.8722 13.1717C16.0387 13.0523 16.0414 12.9826 15.8729 12.8619C14.5154 11.8867 13.1626 10.9049 11.8078 9.92569C11.7554 9.88787 11.7023 9.81556 11.6327 9.84674C11.5451 9.88588 11.5822 9.98141 11.5816 10.0524C11.5789 11.0316 11.5802 12.0108 11.5802 12.9906L11.5809 12.9913Z" fill="#D9D9D9" fill-opacity="0.5"/>
</svg>
