<svg width="32" height="35" viewBox="0 0 32 35" fill="none" xmlns="http://www.w3.org/2000/svg">
<path d="M30.4826 28.3833C26.8073 26.7235 26.6675 19.5991 26.6648 19.4194V14.6398C26.6648 10.0396 23.8538 6.08399 19.8593 4.39972C19.8507 2.03467 17.9244 0.113281 15.5576 0.113281C13.1908 0.113281 11.2646 2.03478 11.2559 4.39961C7.26158 6.08388 4.45053 10.0395 4.45053 14.6396V19.4193C4.44793 19.599 4.30801 26.7234 0.632567 28.3832C0.213874 28.5724 -0.0162402 29.0281 0.0805638 29.4773C0.177255 29.9265 0.574473 30.2473 1.03397 30.2473H10.3516C10.5426 31.2981 11.0394 32.2756 11.7993 33.0674C12.8086 34.1189 14.1434 34.6981 15.5574 34.6981C16.9716 34.6981 18.3064 34.1189 19.3156 33.0674C20.0756 32.2755 20.5724 31.2979 20.7633 30.2473H30.0809C30.5404 30.2473 30.9376 29.9265 31.0344 29.4773C31.1313 29.0281 30.9013 28.5724 30.4826 28.3833ZM25.6411 24.9703C26.0275 26.1417 26.5746 27.318 27.3504 28.2969H3.76477C4.54044 27.3181 5.08753 26.1419 5.4739 24.9703H25.6411ZM15.5576 2.06377C16.6282 2.06377 17.5334 2.78316 17.8167 3.76375C17.087 3.61241 16.3314 3.53261 15.5576 3.53261C14.7838 3.53261 14.0282 3.61235 13.2986 3.76375C13.5819 2.78322 14.4871 2.06377 15.5576 2.06377ZM6.40102 19.4252V14.6396C6.40102 9.59069 10.5086 5.4831 15.5576 5.4831C20.6066 5.4831 24.7142 9.59069 24.7142 14.6396V19.4332C24.7155 19.5799 24.7383 21.1217 25.1269 23.0197H5.98809C6.37689 21.1199 6.39984 19.5754 6.40102 19.4252ZM15.5576 32.7477C14.0691 32.7477 12.7699 31.6745 12.3529 30.2473H18.7622C18.3452 31.6745 17.0463 32.7477 15.5576 32.7477Z" fill="white"/>
<path d="M15.5589 6.85149C11.3629 6.85149 7.94922 10.2651 7.94922 14.461C7.94922 14.9996 8.38588 15.4362 8.92449 15.4362C9.4631 15.4362 9.89977 14.9996 9.89977 14.461C9.89977 11.3406 12.4384 8.80198 15.5589 8.80198C16.0975 8.80198 16.5342 8.36531 16.5342 7.8267C16.5341 7.28804 16.0975 6.85149 15.5589 6.85149Z" fill="white"/>
</svg>
