<svg width="36" height="37" viewBox="0 0 36 37" fill="none" xmlns="http://www.w3.org/2000/svg">
<path d="M35.9991 9.72306C35.5322 11.1867 35.0607 12.6494 34.5994 14.1149C33.7145 16.9243 32.8352 19.7346 31.9521 22.5449C31.699 23.3504 31.3784 23.5872 30.5403 23.5882C24.7412 23.5882 18.9412 23.5882 13.1421 23.5882C12.0275 23.5882 11.2382 24.1949 11.0104 25.2163C10.7544 26.3652 11.5663 27.534 12.7221 27.671C12.9424 27.6966 13.1665 27.7023 13.3887 27.7023C18.4265 27.7042 23.4644 27.7061 28.5023 27.6985C28.9157 27.6985 29.2775 27.7927 29.6328 28.0076C30.6378 28.6153 31.6587 29.1945 32.6664 29.7965C33.1136 30.0637 33.317 30.5383 33.2176 31.0024C33.1117 31.4998 32.7602 31.8717 32.2596 31.9011C31.9971 31.9164 31.698 31.8355 31.4637 31.7081C30.6406 31.2573 29.8288 30.7827 29.0319 30.2863C28.6673 30.059 28.3016 29.9401 27.8751 29.9772C27.6211 29.9991 27.3633 29.981 27.0886 30.0162C27.9173 30.3652 28.5651 30.9064 28.9447 31.729C29.3253 32.5545 29.3497 33.4009 29.0254 34.2511C28.5463 35.5056 27.2592 36.3434 25.9561 36.2588C24.5584 36.1675 23.3847 35.1917 23.0669 33.8546C22.6929 32.2816 23.3069 31.128 25.1415 30.0067H16.4963C18.3187 31.0433 18.9834 32.2996 18.5775 33.8783C18.2137 35.2887 16.9613 36.2711 15.5345 36.2635C14.1227 36.2569 12.8637 35.2659 12.5159 33.8879C12.1128 32.2911 12.7756 31.0348 14.6439 29.981C14.2652 29.981 13.9811 29.9753 13.6971 29.982C12.7643 30.0029 11.8428 29.9563 11.0038 29.476C9.43076 28.5763 8.62736 27.2059 8.72861 25.379C8.82516 23.6433 9.72324 22.4108 11.2757 21.6699C11.3488 21.6347 11.4219 21.6005 11.5222 21.553C11.3563 21.0147 11.195 20.4859 11.0291 19.959C9.59856 15.3998 8.16426 10.8415 6.74027 6.27937C6.65403 6.00452 6.53216 5.91988 6.24905 5.92273C4.66757 5.93795 3.08515 5.91037 1.50461 5.9389C0.814645 5.95126 0.299047 5.74489 0 5.09343V4.52376C0.247487 3.87421 0.710588 3.63169 1.39774 3.64216C3.35326 3.66974 5.31066 3.65072 7.26618 3.65262C8.01614 3.65262 8.34519 3.90179 8.57393 4.63218C8.9311 5.77152 9.28264 6.91371 9.65106 8.05019C9.6895 8.16717 9.82636 8.3355 9.92011 8.33836C10.8904 8.35928 11.8616 8.35167 12.844 8.35167C12.874 8.21282 12.904 8.09965 12.9228 7.98457C13.6268 3.63645 17.3091 0.384869 21.6626 0.267892C26.2102 0.14616 30.1419 3.46336 30.8721 8.04544C30.9087 8.27654 30.9893 8.36023 31.2284 8.35738C32.3524 8.34501 33.4783 8.37545 34.6023 8.34311C35.2866 8.32409 35.7544 8.57041 36 9.22377V9.72211L35.9991 9.72306ZM10.4854 10.6427C10.5041 10.7302 10.5145 10.7987 10.5341 10.8633C11.5981 14.2614 12.665 17.6585 13.7215 21.0584C13.7965 21.3009 13.9315 21.3181 14.1358 21.3181C19.3031 21.3142 24.4703 21.3123 29.6366 21.3219C29.9141 21.3219 30.0153 21.2229 30.0931 20.9709C31.1299 17.6385 32.1771 14.3099 33.2205 10.9803C33.2533 10.8748 33.2748 10.7654 33.3095 10.6246C32.6495 10.6246 32.028 10.6484 31.4102 10.6161C31.0343 10.5961 30.9087 10.7017 30.8412 11.0983C30.1241 15.3113 26.4774 18.5467 22.3235 18.6894C17.91 18.8406 14.1011 15.9542 13.0624 11.6689C12.9799 11.3284 12.9162 10.9822 12.844 10.6427H10.4835H10.4854ZM23.0154 10.9033C23.0154 10.5999 23.0154 10.3897 23.0154 10.1796C23.0154 8.70831 23.0229 7.23706 23.0107 5.76676C23.0051 5.00594 22.4426 4.5076 21.7329 4.5989C21.1526 4.67308 20.7692 5.1562 20.7674 5.8438C20.7617 7.38637 20.7664 8.928 20.7645 10.4706C20.7645 10.5904 20.7524 10.7102 20.743 10.8795C20.4167 10.6275 20.1524 10.4135 19.8777 10.2128C19.3396 9.82007 18.659 9.90946 18.2831 10.4145C17.9025 10.9252 17.9963 11.6042 18.525 12.0227C19.4006 12.7169 20.2827 13.4045 21.1686 14.0864C21.6439 14.4516 22.121 14.464 22.5935 14.1045C23.4925 13.4207 24.385 12.7283 25.2662 12.0208C25.7902 11.5994 25.8624 10.9052 25.4687 10.4078C25.0787 9.91517 24.4019 9.84384 23.8666 10.2442C23.6041 10.4411 23.3472 10.6456 23.0154 10.9033Z" fill="#00F0CC"/>
</svg>
